# xmcd CD database file
#
# Track frame offsets:
#	180
#	35203
#	66497
#	103812
#	151898
#	188875
#	219852
#	258468
#	287843
#
# Disc length: 4433 seconds
#
# Revision: 0
# Processed by: cddbd v1.5.1PL2 Copyright (c) Steve Scherf et al.
# Submitted via: CDex 1.51
#
DISCID=89114f09
DTITLE=Colin Dussault Live in Cleveland (Brothers Lounge) - Blues Project
DYEAR=1995
DGENRE=Blues
TTITLE0=T-Bone Shuffle
TTITLE1=I Am A Blues Man
TTITLE2=Pennsylvania Tidioute
TTITLE3=Memphis Underground - Lowrider - Get Back
TTITLE4=Harp Thang - Mama Don't Allow
TTITLE5=Blues For Robert Lockwood Jr.
TTITLE6=Room To Move - You Got To Move
TTITLE7=My Grandpa
TTITLE8=Do The Robbie
EXTD=YEAR: 1995
EXTT0=
EXTT1=
EXTT2=
EXTT3=
EXTT4=
EXTT5=
EXTT6=
EXTT7=
EXTT8=
PLAYORDER=
